<?xml version="1.0" encoding="UTF-8" standalone="no"?>
<!-- Created with Inkscape (http://www.inkscape.org/) -->

<svg
   xmlns:dc="http://purl.org/dc/elements/1.1/"
   xmlns:cc="http://creativecommons.org/ns#"
   xmlns:rdf="http://www.w3.org/1999/02/22-rdf-syntax-ns#"
   xmlns:svg="http://www.w3.org/2000/svg"
   xmlns="http://www.w3.org/2000/svg"
   xmlns:xlink="http://www.w3.org/1999/xlink"
   xmlns:sodipodi="http://sodipodi.sourceforge.net/DTD/sodipodi-0.dtd"
   xmlns:inkscape="http://www.inkscape.org/namespaces/inkscape"
   width="74mm"
   height="52mm"
   viewBox="0 0 74 52"
   version="1.1"
   id="SVGRoot"
   inkscape:version="0.92.4 (f8dce91, 2019-08-02)"
   sodipodi:docname="MitigationHubLogo.svg"
   inkscape:export-filename="/home/bea/Documents/WirVsVirus/wirvsvirus/logo/MitigationHubLogo_cb.png"
   inkscape:export-xdpi="200"
   inkscape:export-ydpi="200">
  <defs
     id="defs892">
    <linearGradient
       id="linearGradient867"
       inkscape:collect="always">
      <stop
         id="stop863"
         offset="0"
         style="stop-color:#d81b60;stop-opacity:1" />
      <stop
         id="stop865"
         offset="1"
         style="stop-color:#ffc107;stop-opacity:1" />
    </linearGradient>
    <linearGradient
       inkscape:collect="always"
       xlink:href="#linearGradient867"
       id="linearGradient1527"
       x1="3.2740517"
       y1="9.8115044"
       x2="47.709255"
       y2="9.7179604"
       gradientUnits="userSpaceOnUse"
       gradientTransform="matrix(1.0928857,0,0,5.7003406,-3.5279984,-40.750225)" />
    <linearGradient
       inkscape:collect="always"
       id="linearGradient1525">
      <stop
         style="stop-color:#ff0000;stop-opacity:1"
         offset="0"
         id="stop1521" />
      <stop
         style="stop-color:#ffc107;stop-opacity:1"
         offset="1"
         id="stop1523" />
    </linearGradient>
    <clipPath
       clipPathUnits="userSpaceOnUse"
       id="clipPath1582">
      <rect
         style="opacity:1;fill:#89f5ab;fill-opacity:1;fill-rule:evenodd;stroke:none;stroke-width:2.36444998;stroke-miterlimit:4;stroke-dasharray:none;stroke-dashoffset:0;stroke-opacity:0"
         id="rect1584"
         width="67.018517"
         height="33.042297"
         x="1.4559338"
         y="13.812761" />
    </clipPath>
    <clipPath
       clipPathUnits="userSpaceOnUse"
       id="clipPath1724">
      <rect
         style="opacity:0.50700001;fill:#ffffff;fill-opacity:1;fill-rule:evenodd;stroke:none;stroke-width:0.83353168;stroke-miterlimit:4;stroke-dasharray:none;stroke-dashoffset:0;stroke-opacity:1"
         id="rect1726"
         width="68.712265"
         height="31.763956"
         x="0.94118321"
         y="13.149955"
         clip-path="none" />
    </clipPath>
    <linearGradient
       inkscape:collect="always"
       xlink:href="#linearGradient1525"
       id="linearGradient861"
       x1="0.077405393"
       y1="15.302947"
       x2="74.43277"
       y2="15.302947"
       gradientUnits="userSpaceOnUse"
       gradientTransform="translate(-0.02723891,0.00624876)" />
  </defs>
  <sodipodi:namedview
     id="base"
     pagecolor="#ffffff"
     bordercolor="#666666"
     borderopacity="1.0"
     inkscape:pageopacity="0.0"
     inkscape:pageshadow="2"
     inkscape:zoom="2"
     inkscape:cx="190.63952"
     inkscape:cy="98.54872"
     inkscape:document-units="mm"
     inkscape:current-layer="layer1"
     showgrid="false"
     inkscape:window-width="1853"
     inkscape:window-height="1025"
     inkscape:window-x="67"
     inkscape:window-y="27"
     inkscape:window-maximized="1" />
  <metadata
     id="metadata895">
    <rdf:RDF>
      <cc:Work
         rdf:about="">
        <dc:format>image/svg+xml</dc:format>
        <dc:type
           rdf:resource="http://purl.org/dc/dcmitype/StillImage" />
        <dc:title></dc:title>
      </cc:Work>
    </rdf:RDF>
    <rdf:RDF>
      <cc:Work
         rdf:about="">
        <dc:title />
      </cc:Work>
    </rdf:RDF>
  </metadata>
  <g
     inkscape:label="Layer 1"
     inkscape:groupmode="layer"
     id="layer1">
    <path
       d="m 16.055742,55.226706 v -0.342154 -0.761519 -0.76001 -0.760006 -0.76001 -0.760004 -0.76001 -0.760004 -0.76001 -0.760005 -0.760005 -0.76001 V 45.762954 45.001429 44.241424 43.48142 42.721409 41.961405 41.201397 40.441392 39.681382 38.921377 38.161372 37.401363 36.639842 35.879834 35.11983 34.359822 33.599815 32.839808 32.079803 31.319795 30.559788 29.799781 29.039775 28.279768 27.518247 26.75824 25.998233 25.238228 24.478221 23.718214 22.958206 22.198199 21.438194 20.678187 19.918179 19.156658 18.396651 17.636644 16.876638 16.116631 15.356625 14.596617 13.836611 13.076603 12.316597 11.556591 10.796583 10.035064 9.275055 8.515049 7.755042 6.995035 6.235029 5.475022 4.715014 3.955006 3.195001 2.434993 1.673473 0.913467 0.1534591 -0.6065472 -1.3665546 -2.1265611 -2.8865677 -3.6465748 -4.4065814 -5.1665886 -5.9265953 -6.6866019 -7.0726614"
       style="fill:none;stroke:#ffffff;stroke-width:0.14833964;stroke-linecap:round;stroke-linejoin:round;stroke-miterlimit:10;stroke-dasharray:none;stroke-opacity:1"
       id="path36"
       inkscape:connector-curvature="0" />
    <path
       d="m 22.899622,55.226706 v -0.342154 -0.761519 -0.76001 -0.760006 -0.76001 -0.760004 -0.76001 -0.760004 -0.76001 -0.760005 -0.760005 -0.76001 V 45.762954 45.001429 44.241424 43.48142 42.721409 41.961405 41.201397 40.441392 39.681382 38.921377 38.161372 37.401363 36.639842 35.879834 35.11983 34.359822 33.599815 32.839808 32.079803 31.319795 30.559788 29.799781 29.039775 28.279768 27.518247 26.75824 25.998233 25.238228 24.478221 23.718214 22.958206 22.198199 21.438194 20.678187 19.918179 19.156658 18.396651 17.636644 16.876638 16.116631 15.356625 14.596617 13.836611 13.076603 12.316597 11.556591 10.796583 10.035064 9.275055 8.515049 7.755042 6.995035 6.235029 5.475022 4.715014 3.955006 3.195001 2.434993 1.673473 0.913467 0.1534591 -0.6065472 -1.3665546 -2.1265611 -2.8865677 -3.6465748 -4.4065814 -5.1665886 -5.9265953 -6.6866019 -7.0726614"
       style="fill:none;stroke:#ffffff;stroke-width:0.14833964;stroke-linecap:round;stroke-linejoin:round;stroke-miterlimit:10;stroke-dasharray:none;stroke-opacity:1"
       id="path38"
       inkscape:connector-curvature="0" />
    <path
       d="m 29.744771,55.226706 v -0.342154 -0.761519 -0.76001 -0.760006 -0.76001 -0.760004 -0.76001 -0.760004 -0.76001 -0.760005 -0.760005 -0.76001 V 45.762954 45.001429 44.241424 43.48142 42.721409 41.961405 41.201397 40.441392 39.681382 38.921377 38.161372 37.401363 36.639842 35.879834 35.11983 34.359822 33.599815 32.839808 32.079803 31.319795 30.559788 29.799781 29.039775 28.279768 27.518247 26.75824 25.998233 25.238228 24.478221 23.718214 22.958206 22.198199 21.438194 20.678187 19.918179 19.156658 18.396651 17.636644 16.876638 16.116631 15.356625 14.596617 13.836611 13.076603 12.316597 11.556591 10.796583 10.035064 9.275055 8.515049 7.755042 6.995035 6.235029 5.475022 4.715014 3.955006 3.195001 2.434993 1.673473 0.913467 0.1534591 -0.6065472 -1.3665546 -2.1265611 -2.8865677 -3.6465748 -4.4065814 -5.1665886 -5.9265953 -6.6866019 -7.0726614"
       style="fill:none;stroke:#ffffff;stroke-width:0.14833964;stroke-linecap:round;stroke-linejoin:round;stroke-miterlimit:10;stroke-dasharray:none;stroke-opacity:1"
       id="path40"
       inkscape:connector-curvature="0" />
    <path
       d="m 36.588651,55.226706 v -0.342154 -0.761519 -0.76001 -0.760006 -0.76001 -0.760004 -0.76001 -0.760004 -0.76001 -0.760005 -0.760005 -0.76001 V 45.762954 45.001429 44.241424 43.48142 42.721409 41.961405 41.201397 40.441392 39.681382 38.921377 38.161372 37.401363 36.639842 35.879834 35.11983 34.359822 33.599815 32.839808 32.079803 31.319795 30.559788 29.799781 29.039775 28.279768 27.518247 26.75824 25.998233 25.238228 24.478221 23.718214 22.958206 22.198199 21.438194 20.678187 19.918179 19.156658 18.396651 17.636644 16.876638 16.116631 15.356625 14.596617 13.836611 13.076603 12.316597 11.556591 10.796583 10.035064 9.275055 8.515049 7.755042 6.995035 6.235029 5.475022 4.715014 3.955006 3.195001 2.434993 1.673473 0.913467 0.1534591 -0.6065472 -1.3665546 -2.1265611 -2.8865677 -3.6465748 -4.4065814 -5.1665886 -5.9265953 -6.6866019 -7.0726614"
       style="fill:none;stroke:#ffffff;stroke-width:0.14833964;stroke-linecap:round;stroke-linejoin:round;stroke-miterlimit:10;stroke-dasharray:none;stroke-opacity:1"
       id="path42"
       inkscape:connector-curvature="0" />
    <path
       d="m 43.43253,55.226706 v -0.342154 -0.761519 -0.76001 -0.760006 -0.76001 -0.760004 -0.76001 -0.760004 -0.76001 -0.760005 -0.760005 -0.76001 V 45.762954 45.001429 44.241424 43.48142 42.721409 41.961405 41.201397 40.441392 39.681382 38.921377 38.161372 37.401363 36.639842 35.879834 35.11983 34.359822 33.599815 32.839808 32.079803 31.319795 30.559788 29.799781 29.039775 28.279768 27.518247 26.75824 25.998233 25.238228 24.478221 23.718214 22.958206 22.198199 21.438194 20.678187 19.918179 19.156658 18.396651 17.636644 16.876638 16.116631 15.356625 14.596617 13.836611 13.076603 12.316597 11.556591 10.796583 10.035064 9.275055 8.515049 7.755042 6.995035 6.235029 5.475022 4.715014 3.955006 3.195001 2.434993 1.673473 0.913467 0.1534591 -0.6065472 -1.3665546 -2.1265611 -2.8865677 -3.6465748 -4.4065814 -5.1665886 -5.9265953 -6.6866019 -7.0726614"
       style="fill:none;stroke:#ffffff;stroke-width:0.14833964;stroke-linecap:round;stroke-linejoin:round;stroke-miterlimit:10;stroke-dasharray:none;stroke-opacity:1"
       id="path44"
       inkscape:connector-curvature="0" />
    <path
       d="m 50.276409,55.226706 v -0.342154 -0.761519 -0.76001 -0.760006 -0.76001 -0.760004 -0.76001 -0.760004 -0.76001 -0.760005 -0.760005 -0.76001 V 45.762954 45.001429 44.241424 43.48142 42.721409 41.961405 41.201397 40.441392 39.681382 38.921377 38.161372 37.401363 36.639842 35.879834 35.11983 34.359822 33.599815 32.839808 32.079803 31.319795 30.559788 29.799781 29.039775 28.279768 27.518247 26.75824 25.998233 25.238228 24.478221 23.718214 22.958206 22.198199 21.438194 20.678187 19.918179 19.156658 18.396651 17.636644 16.876638 16.116631 15.356625 14.596617 13.836611 13.076603 12.316597 11.556591 10.796583 10.035064 9.275055 8.515049 7.755042 6.995035 6.235029 5.475022 4.715014 3.955006 3.195001 2.434993 1.673473 0.913467 0.1534591 -0.6065472 -1.3665546 -2.1265611 -2.8865677 -3.6465748 -4.4065814 -5.1665886 -5.9265953 -6.6866019 -7.0726614"
       style="fill:none;stroke:#ffffff;stroke-width:0.14833964;stroke-linecap:round;stroke-linejoin:round;stroke-miterlimit:10;stroke-dasharray:none;stroke-opacity:1"
       id="path46"
       inkscape:connector-curvature="0" />
    <path
       d="m 57.12156,55.226706 v -0.342154 -0.761519 -0.76001 -0.760006 -0.76001 -0.760004 -0.76001 -0.760004 -0.76001 -0.760005 -0.760005 -0.76001 V 45.762954 45.001429 44.241424 43.48142 42.721409 41.961405 41.201397 40.441392 39.681382 38.921377 38.161372 37.401363 36.639842 35.879834 35.11983 34.359822 33.599815 32.839808 32.079803 31.319795 30.559788 29.799781 29.039775 28.279768 27.518247 26.75824 25.998233 25.238228 24.478221 23.718214 22.958206 22.198199 21.438194 20.678187 19.918179 19.156658 18.396651 17.636644 16.876638 16.116631 15.356625 14.596617 13.836611 13.076603 12.316597 11.556591 10.796583 10.035064 9.275055 8.515049 7.755042 6.995035 6.235029 5.475022 4.715014 3.955006 3.195001 2.434993 1.673473 0.913467 0.1534591 -0.6065472 -1.3665546 -2.1265611 -2.8865677 -3.6465748 -4.4065814 -5.1665886 -5.9265953 -6.6866019 -7.0726614"
       style="fill:none;stroke:#ffffff;stroke-width:0.14833964;stroke-linecap:round;stroke-linejoin:round;stroke-miterlimit:10;stroke-dasharray:none;stroke-opacity:1"
       id="path48"
       inkscape:connector-curvature="0" />
    <path
       d="m 9.6990993,52.033089 h 0.4610977 0.591679 0.593039 0.593039 0.591678 0.593038 0.593038 0.591678 0.593039 0.593039 0.591677 0.593038 0.593039 0.591678 0.593038 0.593038 0.591678 0.593039 0.593037 0.59168 0.593038 0.593039 0.591678 0.593038 0.593038 0.591677 0.593038 0.59304 0.591679 0.593038 0.593038 0.591679 0.593036 0.591678 0.593038 0.593038 0.591679 0.593039 0.593037 0.59168 0.593038 0.593038 0.591679 0.593037 0.593039 0.591677 0.59304 0.593038 0.591678 0.593038 0.593039 0.591678 0.593038 0.593038 0.591678 0.593038 0.59304 0.591677 0.593038 0.593038 0.591679 0.593038 0.593038 0.591679 0.593038 0.593039 0.591677 0.593038 0.593038 0.59168 0.593038 0.593038 0.591675 0.593038 0.591683 0.593036 0.593038 0.591678 0.593037 0.593038 0.591681 0.593038 0.593037 0.591679 0.593038 0.593041 0.591678 0.593037 0.451578"
       style="fill:none;stroke:#ffffff;stroke-width:0.15893534;stroke-linecap:round;stroke-linejoin:round;stroke-miterlimit:10;stroke-dasharray:none;stroke-opacity:1"
       id="path50"
       inkscape:connector-curvature="0" />
    <path
       d="m 9.6990993,38.594007 h 0.4610977 0.591679 0.593039 0.593039 0.591678 0.593038 0.593038 0.591678 0.593039 0.593039 0.591677 0.593038 0.593039 0.591678 0.593038 0.593038 0.591678 0.593039 0.593037 0.59168 0.593038 0.593039 0.591678 0.593038 0.593038 0.591677 0.593038 0.59304 0.591679 0.593038 0.593038 0.591679 0.593036 0.591678 0.593038 0.593038 0.591679 0.593039 0.593037 0.59168 0.593038 0.593038 0.591679 0.593037 0.593039 0.591677 0.59304 0.593038 0.591678 0.593038 0.593039 0.591678 0.593038 0.593038 0.591678 0.593038 0.59304 0.591677 0.593038 0.593038 0.591679 0.593038 0.593038 0.591679 0.593038 0.593039 0.591677 0.593038 0.593038 0.59168 0.593038 0.593038 0.591675 0.593038 0.591683 0.593036 0.593038 0.591678 0.593037 0.593038 0.591681 0.593038 0.593037 0.591679 0.593038 0.593041 0.591678 0.593037 0.451578"
       style="fill:none;stroke:#ffffff;stroke-width:0.15893534;stroke-linecap:round;stroke-linejoin:round;stroke-miterlimit:10;stroke-dasharray:none;stroke-opacity:1"
       id="path52"
       inkscape:connector-curvature="0" />
    <path
       d="m 9.6990993,25.156551 h 0.4610977 0.591679 0.593039 0.593039 0.591678 0.593038 0.593038 0.591678 0.593039 0.593039 0.591677 0.593038 0.593039 0.591678 0.593038 0.593038 0.591678 0.593039 0.593037 0.59168 0.593038 0.593039 0.591678 0.593038 0.593038 0.591677 0.593038 0.59304 0.591679 0.593038 0.593038 0.591679 0.593036 0.591678 0.593038 0.593038 0.591679 0.593039 0.593037 0.59168 0.593038 0.593038 0.591679 0.593037 0.593039 0.591677 0.59304 0.593038 0.591678 0.593038 0.593039 0.591678 0.593038 0.593038 0.591678 0.593038 0.59304 0.591677 0.593038 0.593038 0.591679 0.593038 0.593038 0.591679 0.593038 0.593039 0.591677 0.593038 0.593038 0.59168 0.593038 0.593038 0.591675 0.593038 0.591683 0.593036 0.593038 0.591678 0.593037 0.593038 0.591681 0.593038 0.593037 0.591679 0.593038 0.593041 0.591678 0.593037 0.451578"
       style="fill:none;stroke:#ffffff;stroke-width:0.15893534;stroke-linecap:round;stroke-linejoin:round;stroke-miterlimit:10;stroke-dasharray:none;stroke-opacity:1"
       id="path54"
       inkscape:connector-curvature="0" />
    <path
       d="m 9.6990993,11.719094 h 0.4610977 0.591679 0.593039 0.593039 0.591678 0.593038 0.593038 0.591678 0.593039 0.593039 0.591677 0.593038 0.593039 0.591678 0.593038 0.593038 0.591678 0.593039 0.593037 0.59168 0.593038 0.593039 0.591678 0.593038 0.593038 0.591677 0.593038 0.59304 0.591679 0.593038 0.593038 0.591679 0.593036 0.591678 0.593038 0.593038 0.591679 0.593039 0.593037 0.59168 0.593038 0.593038 0.591679 0.593037 0.593039 0.591677 0.59304 0.593038 0.591678 0.593038 0.593039 0.591678 0.593038 0.593038 0.591678 0.593038 0.59304 0.591677 0.593038 0.593038 0.591679 0.593038 0.593038 0.591679 0.593038 0.593039 0.591677 0.593038 0.593038 0.59168 0.593038 0.593038 0.591675 0.593038 0.591683 0.593036 0.593038 0.591678 0.593037 0.593038 0.591681 0.593038 0.593037 0.591679 0.593038 0.593041 0.591678 0.593037 0.451578"
       style="fill:none;stroke:#ffffff;stroke-width:0.15893534;stroke-linecap:round;stroke-linejoin:round;stroke-miterlimit:10;stroke-dasharray:none;stroke-opacity:1"
       id="path56"
       inkscape:connector-curvature="0" />
    <path
       d="m 9.6990993,-1.7199874 h 0.4610977 0.591679 0.593039 0.593039 0.591678 0.593038 0.593038 0.591678 0.593039 0.593039 0.591677 0.593038 0.593039 0.591678 0.593038 0.593038 0.591678 0.593039 0.593037 0.59168 0.593038 0.593039 0.591678 0.593038 0.593038 0.591677 0.593038 0.59304 0.591679 0.593038 0.593038 0.591679 0.593036 0.591678 0.593038 0.593038 0.591679 0.593039 0.593037 0.59168 0.593038 0.593038 0.591679 0.593037 0.593039 0.591677 0.59304 0.593038 0.591678 0.593038 0.593039 0.591678 0.593038 0.593038 0.591678 0.593038 0.59304 0.591677 0.593038 0.593038 0.591679 0.593038 0.593038 0.591679 0.593038 0.593039 0.591677 0.593038 0.593038 0.59168 0.593038 0.593038 0.591675 0.593038 0.591683 0.593036 0.593038 0.591678 0.593037 0.593038 0.591681 0.593038 0.593037 0.591679 0.593038 0.593041 0.591678 0.593037 0.451578"
       style="fill:none;stroke:#ffffff;stroke-width:0.15893534;stroke-linecap:round;stroke-linejoin:round;stroke-miterlimit:10;stroke-dasharray:none;stroke-opacity:1"
       id="path58"
       inkscape:connector-curvature="0" />
    <path
       d="m 28.517164,-3.3589227 -0.137108,0.031791 0.0038,-0.2028702 0.151071,0.00454 0.118064,0.00305 -0.0051,0.031791 -0.01905,0.1074906 z"
       style="fill:#d9d9d9;fill-opacity:1;fill-rule:evenodd;stroke:#4d4d4d;stroke-width:0.14833964;stroke-linecap:butt;stroke-linejoin:round;stroke-miterlimit:10;stroke-dasharray:none;stroke-opacity:1"
       id="path62"
       inkscape:connector-curvature="0"
       clip-path="url(#clipPath1582)" />
    <path
       d="m 27.421562,-1.9284451 0.640865,0.3432216 0.309668,-0.094245 0.198718,-0.023913 0.125852,0.1758306 -0.127509,0.2039636 0.137448,0.130818 -0.07617,0.01266 -0.235149,0.036572 -0.208654,0.2349099 -0.09605,0.066112 0.06955,0.1083122 0.06127,0.092838 -0.317949,0.046419 -0.04141,-0.068925 -0.105986,-0.1758307 -0.119226,0.070332 -0.197062,0.1181581 -0.0679,0.097058 0.03644,0.23491 0.453739,0.2095902 0.04802,-0.1139381 -0.01325,-0.2335031 0.190439,-0.019694 0.08114,0.3249348 -0.06127,0.1069051 -0.06624,0.1195648 h -0.09603 -0.127509 l -0.183815,-0.064706 -0.05299,-0.018286 -0.09936,0.071739 -0.206998,-0.050639 0.02153,-0.101278 -0.02153,-0.1462908 -0.03974,-0.2799224 -0.231836,-0.00422 -0.157319,0.026727 -0.07451,0.250383 0.0596,0.2363163 0.05301,0.066113 0.09771,0.1209716 0.139103,0.039387 0.0232,-0.092838 0.246741,0.056265 0.08115,0.052046 0.05133,0.1589514 -0.01657,0.123785 0.155662,0.13785 0.125852,-0.04924 0.158975,-0.0099 0.385844,-0.1842706 0.124194,-0.1927104 0.07285,0.2124034 0.09107,0.050643 -0.05301,0.187084 0.256679,-0.0633 0.25502,0.48248 -0.110956,0.372761 0.120881,0.01407 -0.09936,0.185677 -0.05961,0.320716 -0.233494,0.04361 -0.170566,0.03517 -0.06623,0.126599 -0.30967,-0.102682 -0.220245,0.08159 -0.147382,0.08862 -0.04139,0.156138 0.0016,0.160358 0.0016,0.09425 0.0033,0.301022 0.0049,0.358695 0.06127,0.37276 -0.05631,0.01121 -0.172221,0.03094 -0.02483,0.170204 0.200375,-0.0014 h 0.127507 l 0.05465,0.135038 -0.115926,0.09705 0.0232,0.158951 0.144069,0.13785 -0.137445,0.09284 0.180502,0.146291 0.05961,0.177239 0.404059,0.429026 0.04306,0.133633 0.02483,0.07596 0.03478,0.06189 0.07285,0.139257 -0.01657,0.0056 -0.0149,0.0085 -0.01325,0.01121 -0.01161,0.01121 -0.0232,0.02532 -0.01988,0.02954 -0.01657,0.03094 -0.0067,0.01547 -0.01324,0.03094 -0.0067,0.01548 -0.0033,0.01547 -0.0049,0.03235 -0.0016,0.03376 0.0033,0.0647 0.0033,0.03376 0.01657,0.06611 0.0016,0.01689 0.0016,0.01548 -0.0016,0.01687 -0.0033,0.01407 -0.0033,0.01687 -0.0083,0.01407 -0.0083,0.01407 -0.0099,0.01546 0.17719,0.229284 0.101017,0.05064 0.187127,0.18849 -0.0033,0.08299 0.04471,0.07174 0.07287,0.0225 0.03809,0.109715 0.19375,-0.05627 0.10433,-0.01407 0.101017,-0.05626 0.0712,0.007 0.08777,0.125191 -0.02318,0.07596 0.02649,0.04642 0.07949,-0.007 -0.07782,0.191303 -0.09605,0.188492 0.0033,0.182863 0.01324,0.147698 0.09273,0.129411 0.01325,0.174423 -0.155662,0.104087 -0.07451,0.354475 0.221902,-0.108309 0.167256,-0.01121 0.228524,0.305241 0.04803,0.174425 0.08777,0.02672 0.112613,0.03376 0.144072,-0.03518 0.112599,-0.182863 0.30967,0.06753 0.351068,0.220842 -0.124195,0.229283 0.119238,0.194117 0.182159,0.18427 0.16063,0.06753 0.08115,-0.02672 0.220245,0.04642 0.177191,-0.122377 0.09107,0.113937 0.07949,0.0085 0.203683,0.03516 -0.03975,0.4121466 -0.170565,0.0099 -0.25171,-0.02111 -0.203687,-0.09425 -0.07949,-0.0647 -0.154008,-0.0085 -0.08777,0.02391 -0.05299,0.177236 0.211967,0.01548 0.09273,0.308055 0.250054,-0.04079 0.162286,0.02391 0.139103,-0.02955 0.298076,-0.06329 0.107643,-0.25179 0.05301,-0.139255 0.124195,-0.0647 0.572969,0.09566 0.167255,-0.0056 0.197062,0.06753 0.369283,0.385422 0.130824,0.08018 0.255021,0.154731 0.211965,0.07314 0.218591,0.08159 0.202029,0.05346 0.168911,-0.07033 0.210311,-0.137851 0.125851,-0.170203 0.220246,0.0197 0.195406,-0.007 0.105988,0.03096 0.101017,0.0619 0.162285,0.212402 0.08445,0.06892 0.135791,0.02531 0.17719,0.01828 0.185471,0.03235 0.202028,-0.0099 0.185471,-0.02111 0.394124,0.229284 0.213622,0.07173 -0.122539,-0.184271 -0.053,-0.240536 0.06955,-0.151917 0.06458,-0.218031 0.206997,-0.140664 0.142415,-0.146291 0.06293,-0.113937 0.150696,-0.11253 0.425588,-0.3221236 0.195405,-0.126598 0.342787,0.340409 0.0083,-0.140663 0.101017,-0.05768 0.274891,0.05346 0.107644,0.04783 0.101017,0.0056 0.129165,0.104088 -0.08943,0.03798 -0.115926,0.02813 -0.01657,0.0042 -0.09273,0.03236 -0.06457,0.09425 -0.03645,0.09705 0.0016,0.08299 0.02649,0.106901 0.07287,0.08722 0.0414,0.06892 0.0049,0.07455 -0.05133,0.133632 0.04471,0.02955 0.02484,0.168797 0.04471,0.09566 -0.02153,0.07737 -0.112614,0.04501 -0.05631,0.05485 -0.01822,0.07596 0.03975,0.139259 -0.0016,0.07314 -0.08445,0.09144 0.01324,0.08299 -0.0712,0.07455 -0.05299,0.09847 0.0033,0.136445 0.110957,0.157543 0.273236,0.288361 0.205342,0.215218 0.211966,0.270076 0.225214,0.23913 0.140758,0.153325 0.06293,0.120971 0.03809,0.132225 0.269927,-0.03517 0.226869,-0.04079 0.172223,-0.130816 -0.06127,-0.07877 0.102675,-0.130817 0.05631,-0.194117 -0.0265,-0.150511 0.208655,0.06048 0.246742,-0.01547 V 12.77227 l 0.02815,-0.137851 0.17388,0.02531 0.06623,-0.10268 0.02816,-0.02111 0.0232,-0.02672 0.01987,-0.02391 0.01324,-0.02391 0.144071,0.03518 0.187126,0.07314 0.407372,0.0027 0.301388,-0.120971 0.210311,-0.111123 0.468643,-0.04783 0.369284,-0.06048 0.506731,-0.164578 0.453738,-0.0619 0.298077,0.03376 0.574627,0.337594 0.314636,0.02955 0.322917,-0.116751 0.0049,0.05064 -0.0033,0.02813 -0.01161,0.03798 -0.0099,0.03939 -0.0033,0.01407 -0.0083,0.04361 -0.0033,0.03518 -0.0083,0.09284 -0.03809,0.07737 -0.0232,0.05205 -0.03312,0.05907 -0.0265,0.05346 -0.03974,0.05627 -0.01657,0.02391 -0.01161,0.0225 -0.01324,0.01828 0.0067,0.0647 0.0033,0.01407 0.0149,0.03095 0.0067,0.01121 0.02981,0.04079 0.02484,0.02672 0.0563,0.04079 0.04637,0.03516 0.02649,0.03376 0.02484,0.02953 0.02154,0.04922 0.01657,0.135038 -0.110957,0.291175 -0.01161,0.02392 v 0.01121 l -0.0033,0.02532 0.0099,0.02672 0.02318,0.04079 0.0596,0.113937 0.0149,0.02392 0.0083,0.03516 0.0049,0.03235 v 0.02672 l -0.0067,0.04361 -0.05134,0.212405 -0.0067,0.02532 0.0016,0.03236 0.0149,0.045 -0.569659,0.346034 -0.238462,0.248978 -0.03644,0.462786 -0.281519,0.219436 -0.37922,0.309462 -0.534882,0.493733 -0.736913,0.209591 -0.142415,-0.08722 -0.0828,-0.03657 -0.250053,-0.0844 0.02815,-0.35166 0.162287,-0.317902 0.114269,-0.253197 -0.450427,-0.451531 -0.110955,-0.270077 -0.723663,-0.326342 -0.261646,0.225063 -0.03974,0.130819 -0.533226,0.39386 -0.144069,0.185677 -0.192097,0.0056 -0.173878,0.0197 -0.25005,0.271481 -0.152351,0.123787 -0.218591,0.05205 -0.149037,0.07455 -0.147385,0.177239 -0.107643,0.272888 -0.0232,0.253195 -0.144071,0.251789 0.465331,0.203964 0.09273,0.220844 0.235149,0.476853 0.0099,0.260228 0.11757,0.158952 0.06955,0.111122 -0.134134,0.376983 -0.0099,0.130818 0.03974,0.286954 0.02981,0.302431 -0.03312,0.330561 -0.0712,0.164577 0.361003,0.27289 0.04471,0.09987 -0.02153,0.09566 -0.04802,0.191304 0.0067,0.09846 -0.149039,0.295395 -0.112598,0.0422 -0.269926,0.476853 -0.231837,0.105495 -0.259991,0.05907 -0.251708,-0.101273 -0.253365,-0.07033 -0.240118,0.01265 -0.144072,0.05205 -0.119226,0.04642 -0.08611,0.09566 -0.167255,0.02954 -0.09439,0.118158 -0.286484,0.120971 -0.03312,0.153324 -0.01324,0.09987 -0.0049,0.04922 -0.0016,0.04922 -0.0033,0.04783 0.0033,0.04922 0.0033,0.03235 0.0083,0.04922 0.01325,0.04922 0.01657,0.04783 0.01657,0.03094 0.0149,0.02955 0.02486,0.0422 0.01161,0.01265 0.01822,0.0099 0.02154,0.007 0.03146,0.0085 0.01161,0.0042 0.01822,0.007 0.0099,0.0085 0.0049,0.01121 -0.0016,0.01407 -0.0033,0.01407 -0.0049,0.01407 -0.0067,0.01689 -0.01987,0.02955 -0.02153,0.03096 -0.0265,0.02954 -0.02649,0.02672 -0.01325,0.0099 -0.0149,0.0085 -0.01821,0.0056 -0.01822,0.0042 -0.02154,0.0042 -0.01987,0.0014 -0.03974,0.0014 -0.01987,-0.0014 -0.02154,-0.0014 -0.04471,-0.007 -0.04802,-0.0085 -0.02649,-0.0056 -0.08943,-0.01828 -0.0414,-0.007 -0.03479,-0.0027 -0.0149,0.0014 -0.01324,0.0014 -0.01161,0.0014 -0.0067,0.007 -0.0033,0.0085 -0.0033,0.007 v 0.0099 l 0.0016,0.0099 0.0067,0.02392 0.0049,0.01407 0.01325,0.02813 0.01821,0.03096 0.02153,0.03376 0.01161,0.01688 0.09273,0.136446 0.08777,0.14629 0.183814,0.02251 0.173879,0.03235 -0.09107,0.112529 -0.332854,0.219436 0.432213,0.184272 0.346101,0.285548 0.162285,0.133632 0.04802,0.180052 0.278205,0.04361 0.361003,0.189896 0.21031,-0.284141 0.205342,-0.326343 0.09605,-0.237723 0.04306,-0.303834 0.0083,-0.261636 0.1093,-0.139259 0.09936,-0.0197 0.07451,0.007 0.05631,0.01121 0.145726,0.06329 0.216935,0.108309 0.08612,0.05627 0.06457,0.05205 0.04803,0.04503 0.04306,0.04642 0.03809,0.05909 0.02981,0.04642 0.221901,0.485293 0.05631,0.108308 0.0232,0.03798 0.03312,0.04361 0.0596,0.06753 0.05794,0.05485 0.04802,0.04642 0.0563,0.03798 0.0712,0.04361 0.127507,0.05346 0.231838,0.03235 0.139102,-0.04079 0.109299,-0.03376 0.0828,-0.03518 0.03809,-0.03096 0.07949,-0.06753 0.539851,-0.462786 0.04802,-0.04783 0.07286,-0.07596 0.05301,-0.05768 0.04306,-0.05485 0.264958,-0.374168 0.07782,-0.09705 0.05631,-0.0619 0.05133,-0.05907 0.0265,-0.02954 0.02981,-0.04783 0.09273,-0.149106 0.07451,-0.118158 0.04141,-0.06611 0.03146,-0.04079 0.03645,-0.03376 0.05298,-0.04361 0.0414,-0.02813 0.05631,-0.03095 0.06955,-0.03657 0.102675,-0.04642 0.03809,-0.01687 0.188783,-0.08159 0.122539,-0.05063 0.20534,-0.09284 0.140758,-0.0647 0.04306,-0.02109 0.04306,-0.02532 0.02981,0.04782 0.06127,-0.03798 0.213622,-0.154731 0.1093,-0.09425 0.122538,-0.104087 0.112612,-0.104087 0.03478,-0.04642 0.03809,-0.06611 0.0298,-0.07877 0.03146,-0.09705 0.05133,-0.178645 0.053,-0.07315 0.246741,-1.171736 0.02485,-0.07596 0.03645,-0.123786 0.08942,-0.341813 0.0828,-0.171611 0.04471,-0.19271 0.165597,-0.09144 0.120882,0.07455 0.04471,0.02813 -0.0049,0.02111 -0.0099,0.05346 0.0016,0.04642 0.0049,0.05346 0.0083,0.03939 0.01324,0.03939 0.02153,0.0422 0.04306,0.07314 0.0265,0.03236 0.03312,0.03798 0.02815,0.02954 0.139102,0.109716 0.05794,0.03376 0.04306,0.0197 0.05794,0.01548 0.04637,0.01265 0.04636,0.0085 0.05299,0.0014 h 0.04141 l 0.0563,-0.0099 0.609403,-0.203963 0.223557,-0.09144 0.150695,-0.07033 0.0083,-0.0042 0.01324,-0.0056 0.08115,-0.05485 0.02981,-0.04361 0.01821,-0.04501 0.02154,-0.06329 0.0083,-0.03517 0.0099,-0.05346 0.0149,-0.158951 v -0.03798 l -0.0016,-0.10268 0.0149,-0.13926 0.0083,-0.04501 0.01987,-0.04079 0.0298,-0.03518 0.06127,-0.0422 0.0067,-0.07033 0.01161,-0.0099 0.01821,-0.01121 0.0149,-0.0085 0.03478,-0.01687 0.01657,-0.0085 0.03478,-0.01121 0.01822,-0.0056 0.01987,-0.0027 0.03478,-0.0042 0.211966,-0.0225 0.03312,-0.0014 0.07286,-0.0014 0.154007,-0.007 0.04471,-0.0027 0.05299,-0.0042 0.02153,-0.0014 0.03479,-0.0027 0.183813,-0.007 0.132479,-0.01688 0.05465,-0.01121 0.07782,-0.03376 0.144067,-0.07314 0.06293,-0.03235 0.145725,-0.08721 0.04803,-0.03235 0.05299,-0.04501 0.01821,-0.01689 0.177189,-0.143477 0.01822,-0.01265 0.03145,-0.01828 0.0679,-0.02952 -0.124196,-0.236318 -0.04636,-0.09847 -0.0067,-0.0197 -0.129165,-0.19693 -0.124208,-0.10268 -0.163943,-0.139259 -0.04469,-0.03657 -0.139101,-0.123784 -0.01324,-0.196931 -0.104331,-0.05485 -0.213621,0.02391 -0.200375,-0.04783 -0.134136,-0.185676 -0.205339,-0.407929 0.178845,-0.118158 0.07287,-0.11253 -0.01657,-0.226469 0.0049,-0.248975 0.09605,-0.122379 0.206999,-0.243351 0.144069,-0.128002 0.01822,-0.296803 0.170567,-0.19271 0.09771,-0.0647 0.06127,-0.007 0.437177,0.11253 0.294767,0.177239 0.188784,0.199743 0.07617,-0.05346 -0.0099,-0.213809 -0.197064,-0.115344 -0.130821,-0.18849 -0.0232,-0.156139 0.09936,-0.161764 -0.01492,-0.185677 0.03975,-0.111123 0.288139,-0.149103 0.223558,-0.288363 -0.18547,-0.312277 -0.137443,-0.230688 -0.25668,-0.299616 0.02648,-0.173016 0.02817,-0.167391 0.616026,0.316494 0.180501,0.05627 0.243428,0.111123 0.137449,-0.03657 0.264955,0.0225 0.331199,-0.104088 0.288138,-0.09284 0.226874,-0.01407 -0.07949,-0.168796 0.07451,-0.05908 0.03146,-0.302428 0.125851,-0.142071 0.23681,-0.08018 0.357692,-0.05346 0.155662,0.540151 0.417308,0.26867 0.491828,-0.175832 0.158967,0.05907 0.266619,0.0042 0.228526,0.01969 0.274891,0.215216 0.231839,0.0056 0.125851,-0.04361 0.142415,0.227876 -0.03644,0.05907 -0.01658,0.01688 -0.02483,0.02672 -0.02484,0.04361 -0.0067,0.05064 0.0083,0.03939 0.03644,0.03235 0.0828,0.02813 0.140762,0.03235 0.114256,0.01548 0.08777,0.007 0.160631,0.01121 0.192094,0.0027 0.188783,-0.01121 0.140757,-0.01407 0.150698,-0.0197 0.15069,-0.01829 0.155665,-0.02111 0.155662,-0.02109 0.152348,-0.03376 0.135792,-0.02672 0.168909,-0.01407 0.147387,0.0027 0.04968,0.0027 0.09771,0.0042 0.18547,-0.0014 V 12.68372 l 0.0033,-0.02111 0.0033,-0.05485 0.002,-0.03516 0.0049,-0.02954 0.002,-0.04922 -0.0067,-0.03096 -0.01161,-0.02955 -0.01161,-0.01969 -0.0083,-0.01407 -0.02817,-0.06329 -0.0099,-0.05346 -0.002,-0.02531 v -0.08159 l -0.002,-0.144886 -0.002,-0.04642 0.0099,-0.02813 0.01492,-0.03657 0.03479,-0.04501 0.06127,-0.04642 0.07949,-0.06048 0.258337,-0.185677 0.04968,-0.05627 0.02483,-0.03376 0.01324,-0.01828 0.03313,-0.123784 0.0099,-0.03095 0.01492,-0.02251 0.0232,-0.0197 0.0596,-0.06892 0.02483,-0.02672 0.0099,-0.0197 0.0067,-0.02532 0.0049,-0.05767 -0.002,-0.05064 -0.002,-0.08862 -0.0099,-0.09987 v -0.0085 l -0.0067,-0.09566 -0.002,-0.04922 0.0083,-0.0647 0.01492,-0.06611 0.01821,-0.05064 0.03643,-0.0647 0.04142,-0.04361 0.01161,-0.01407 0.01324,-0.01121 0.01324,-0.01265 0.01324,-0.01121 0.02981,-0.01688 0.01658,-0.0085 0.03309,-0.01688 0.09108,-0.03516 0.01658,-0.007 0.05133,-0.0225 0.0331,-0.01689 0.03145,-0.0197 0.01324,-0.01121 0.02981,-0.02251 0.02648,-0.02391 0.03806,-0.03518 0.02648,-0.02531 0.06623,-0.07455 0.04803,-0.0619 0.120896,-0.150512 0.04803,-0.06048 0.09936,-0.119565 0.07949,-0.09144 0.07122,-0.07877 0.05961,-0.0647 0.04968,-0.04922 0.05465,-0.04642 0.02484,-0.0225 0.145729,0.07314 0.27986,0.236317 0.402404,0.07877 0.413999,0.154732 0.40737,-0.133632 -0.104331,0.357287 -0.463676,-0.01121 -0.06955,0.139257 -0.279864,0.977618 -0.268268,0.565472 0.124195,-0.01687 0.115925,-0.0027 0.147383,0.0197 0.15566,0.05627 0.137449,0.08299 0.140758,0.125189 0.139101,0.1477 0.15401,0.19271 0.173875,0.274296 0.110957,0.202558 -0.150693,0.118158 -0.127508,0.09705 -0.375913,0.233502 -0.124194,0.120972 -0.168913,0.301021 -0.152347,0.202558 -0.253365,0.05768 -0.283173,0.0085 -0.722008,0.561253 -0.01821,-0.01548 -0.117568,-0.09144 -0.172224,-0.139258 -0.158974,-0.08299 -0.04968,-0.02532 -0.07949,0.07314 0.680605,0.561251 -0.132478,0.39386 -0.0067,0.288364 -0.412335,-0.101274 0.142414,-0.367134 -0.301393,-0.164577 -0.248399,0.232097 -0.104331,0.12941 -0.129164,0.182864 -0.332856,0.257417 -0.351063,0.03235 -0.329543,0.153326 -0.438834,0.12097 -0.259989,-0.03657 -0.17388,0.03376 -0.105987,0.115344 0.130826,0.173018 0.07782,0.213809 0.157321,0.03516 0.364315,0.527492 0.370939,0.426212 0.170565,0.258824 0.168915,0.291175 0.183811,0.372761 0.501765,0.739896 -0.491826,0.433247 -0.430556,0.227876 -0.331198,0.18005 -0.25999,0.26445 -0.241773,0.319309 -0.187128,0.285549 -0.122538,0.05908 -0.09107,0.09987 -0.27986,0.180052 -0.175537,0.170203 0.274892,0.371354 0.04802,0.09003 0.120882,0.122379 -0.359349,0.175831 -0.402403,0.173017 v 0.104088 l 0.05133,0.333375 -0.465334,0.03516 -0.195401,-0.0027 -0.117583,-0.02532 -0.127508,-0.03376 -0.09605,-0.04783 -0.101007,-0.04642 -0.105987,-0.07033 -0.09273,-0.06189 -0.07617,-0.08159 -0.05299,-0.07877 -0.03644,-0.09987 -0.0232,-0.105494 -0.01492,-0.129413 0.002,-0.09003 0.01324,-0.106902 0.107631,-0.405114 0.04803,-0.126598 -0.233495,0.05346 -0.03644,0.104088 -0.03479,0.104087 -0.150698,0.007 -0.09273,-0.02392 -0.407372,0.156137 -0.278205,0.241944 -0.10433,0.150511 -0.16063,0.08581 -0.0083,0.292581 0.0033,0.01265 0.02981,0.123786 0.02648,0.08299 0.05794,0.123786 0.135793,0.316494 0.152351,0.01265 0.03146,0.347441 0.05796,0.360102 -0.06293,0.313682 0.0083,0.275703 -0.172222,-0.04361 -0.129164,0.08581 -0.246738,0.07033 0.0232,0.13363 -0.202025,0.04361 -0.243433,0.208182 -0.04802,0.22225 -0.471956,-0.03518 -0.05466,0.157543 -0.357694,-0.213808 0.01986,-0.104087 -0.145731,-0.109716 -0.220243,-0.12941 -0.352725,0.111123 -0.190437,0.04922 -0.327885,0.09144 -0.374253,0.05627 -0.0232,0.0014 -0.183813,0.03798 -0.41234,0.246162 -0.298077,0.344629 -0.17719,0.199743 0.03146,0.492326 0.241772,0.0056 0.09771,0.57532 v 0.497952 l 0.05794,0.312276 0.276549,0.0422 0.08943,-0.06892 0.17719,0.09566 0.316294,0.06611 0.619337,0.672376 0.235149,0.258823 0.241775,0.18427 0.163942,0.105494 0.135791,0.101273 -0.08778,0.161763 -0.01986,0.11253 0.105988,0.18849 0.105986,0.147699 0.06624,0.15895 0.01161,0.215216 -0.140758,0.21803 -0.210309,0.07174 -0.03976,0.149103 0.02817,0.03376 0.107644,0.12941 0.114269,0.139259 0.09771,0.108308 0.145723,0.13504 0.02155,0.0197 0.125853,0.108308 0.230181,0.07877 0.145725,0.04079 0.127507,0.03516 0.293111,-0.284142 0.125851,0.07737 0.07782,0.04783 0.245087,-0.105494 0.299732,-0.03235 0.273242,0.06753 0.07287,0.160357 0.0083,0.07314 0.02648,0.222251 0.03644,0.267261 0.167256,-0.07033 0.190437,-0.105494 0.145729,-0.06611 0.160627,-0.01265 0.134136,0.03095 0.134133,0.08862 0.230182,0.05768 0.33948,0.113937 0.0099,0.007 0.02484,0.156138 0.08777,0.147696 0.226873,0.175831 0.32457,0.210997 0.531573,0.284142 0.117568,0.125191 0.175536,0.225064 0.134135,0.115344 0.357693,0.106902 -0.0083,0.244756 0.41565,0.04922 0.05299,-0.0844 0.448771,-0.142072 0.17222,-0.222249 0.105986,-0.08862 0.192092,0.08299 0.11427,0.07315 0.0099,0.130819 -0.110956,0.13363 -0.200374,0.225065 -0.279863,0.195523 -0.07286,0.173016 -0.0067,0.132225 0.124194,0.216625 0.05631,0.223657 0.102676,0.122377 0.253367,0.109716 0.317946,0.08018 0.03808,0.168794 0.173878,-0.02249 0.114269,0.147695 -0.04636,0.180052 0.05465,0.153327 -0.07782,0.128004 -0.225215,0.161763 -0.09936,0.230693 -0.142411,0.182862 -0.124208,0.438871 -0.04637,-0.01269 -0.64914,-0.187082 -0.523293,-0.0647 -0.140757,-0.09566 -0.45871,-0.03094 -0.05794,-0.136442 -0.09605,-0.02249 -0.01161,-0.01121 -0.04303,-0.02531 -0.06127,-0.03094 -0.06955,-0.03518 -0.0099,-0.0042 -0.0596,-0.02533 -0.04802,-0.03377 -0.187128,0.04642 -0.01161,0.279923 -0.02816,0.146291 0.127508,0.174422 0.04304,0.333378 0.13082,-0.312277 0.134134,0.196932 0.09936,-0.04079 0.109288,0.174425 -0.07949,0.295394 -0.01161,0.327747 0.188784,0.03518 0.144071,0.02955 0.02648,-0.226471 0.157318,0.04783 0.104331,-0.05205 0.07617,0.0056 0.21362,0.06892 -0.06956,0.184271 0.142417,0.07455 0.18216,0.08722 0.124195,0.04501 0.03975,0.5078 -0.15401,0.0183 -0.07949,-0.0422 -0.01986,0.111135 -0.05134,0.03094 -0.144073,0.02249 -0.08445,0.09003 0.02981,0.20115 -0.187127,0.04642 -0.09273,0.105495 -0.01658,0.0619 -0.109286,0.128001 0.04142,0.109716 -0.155664,0.04079 0.08612,0.09283 -0.435526,0.215216 -0.271584,0.142074 -0.193749,0.09142 -0.235147,-0.0099 -0.190435,0.381198 -0.134136,0.09003 0.223558,0.261636 0.197059,0.02815 0.142414,0.0017 -0.09439,0.279925 -0.205343,0.02672 -0.281517,0.135037 -0.47858,-0.673783 -0.3047,-0.08862 -0.322919,-0.317904 -0.130821,-0.07737 -0.32954,0.0099 0.107643,0.292583 0.243429,0.3601 0.105987,0.115344 -0.07782,0.118158 -0.09108,0.236314 -0.279863,0.21944 0.187126,0.111122 0.134134,0.07596 0.157319,0.243352 0.546477,-0.122379 0.134134,0.220842 -0.276549,0.340408 -0.05465,0.170208 -0.06127,0.192708 -0.0596,0.125189 -0.124195,0.06753 -1.346313,0.09566 0.112599,0.319308 -0.220244,0.05626 0.04968,0.106902 -0.221899,0.03094 -0.02483,0.164579 -0.09605,0.0099 -0.03806,0.298209 -0.26827,0.07877 -0.203683,0.168799 -0.168913,0.139257 -0.187122,0.0422 -0.09273,-0.06048 -0.127508,0.05627 0.01324,0.05768 -0.127507,0.03796 -0.165595,0.01408 -0.332854,-0.08299 -0.08611,0.219435 -0.05794,0.293992 -0.09439,0.369945 -0.301387,0.0056 -0.01821,0.06329 0.283174,0.324936 -0.144068,0.123784 -0.192098,0.270079 -0.134135,0.10268 -0.144066,0.01547 -0.269927,0.03656 -1.059829,0.191305 -0.36266,0.08581 -0.438835,0.112529 -0.344446,0.218028 -0.05794,-0.05346 -0.07451,-0.06892 -0.327886,0.118158 -0.223556,0.01121 -0.589531,0.241944 -0.544817,-0.06049 -0.553099,0.233507 -0.409027,0.122376 -0.09936,0.0099 -0.493482,0.05063 -0.321262,-0.02955 -0.03809,0.229285 0.08943,0.104099 0.09273,0.115344 -0.0149,0.230692 0.180503,0.105494 0.135792,0.139257 0.198718,0.09425 -0.09605,0.36995 0.0016,0.05627 0.0067,0.237724 0.03645,0.174423 0.03312,0.08722 0.22687,0.436059 -0.763409,0.150514 -0.418963,0.153321 -0.185471,0.01121 -0.197061,0.01121 -0.21859,0.01263 0.167253,0.08721 -0.41234,0.38261 -0.04636,0.08299 -0.253364,-0.175831 -0.25999,0.175831 -0.158974,-0.140661 -0.16063,0.133632 -0.236806,-0.18568 -0.220245,-0.111122 -0.09936,-0.05627 -0.14904,-0.04079 -0.536537,-0.414963 -0.188781,-0.07737 -0.150697,-0.105507 -0.281515,-0.195523 -0.09771,-0.201149 -0.198717,-0.129413 -0.215279,-0.07314 -0.33451,0.0027 -0.03479,-0.143477 -0.03975,-0.09565 -0.03312,-0.07455 -0.155664,-0.154734 -0.157316,-0.0844 -0.198717,-0.05627 -0.137449,-0.02815 -0.05628,-0.07455 -0.236807,-0.08159 -0.283172,0.04501 -0.08445,-0.09847 -0.119226,-0.115344 0.0016,-0.111123 -0.0016,-0.09003 -0.0016,-0.07455 -0.0016,-0.06894 -0.0067,-0.06189 -0.0232,-0.07175 -0.03146,-0.0619 -0.04471,-0.05627 -0.09605,-0.08862 -0.03975,0.07737 -0.15732,0.188492 -0.192093,0.109716 -0.286485,0.0619 -0.397435,0.05907 -0.03645,-0.05907 -0.183814,0.02955 -0.476923,-0.286957 -0.154007,0.151917 -0.221902,0.06893 -0.245085,0.01268 -0.246741,0.07456 -0.053,-0.01547 -0.356037,-0.206777 -0.336164,-0.150513 -0.319606,-0.246162 -0.08777,0.04361 -0.213621,0.07033 -0.306358,-0.0099 -0.394123,-0.116751 -0.178847,-0.08862 -0.258333,-0.213809 -0.06127,-0.01686 -0.06457,-0.0099 -0.0712,-0.0099 -0.07617,-0.007 -0.223557,-0.524678 -0.233494,-0.678004 0.266613,-0.08862 -0.02816,-0.126598 -0.05133,-0.165985 -0.154007,-0.171611 -0.158974,-0.278517 -0.21859,-0.144883 -0.452082,-0.116751 -0.0033,-0.147694 -0.172223,-0.07596 -0.0828,-0.232099 -0.591187,0.223657 -0.05299,-0.08581 -0.0016,-0.327753 -0.145726,-0.340407 -0.134135,-0.279924 -0.0149,-0.04642 -0.390811,0.01121 -0.286486,0.130817 -0.08943,0.123786 -0.336165,0.14207 -0.03479,-0.09284 -0.187127,0.202557 -0.278205,0.119566 -0.163941,0.24757 -0.240117,0.234912 -0.145727,0.111122 -0.316293,-0.165984 -0.112613,-0.123783 -0.149037,-0.256012 -0.29311,0.168801 -0.03809,0.0647 -0.04142,0.0042 -0.197061,0.02109 -0.163941,-0.0042 -0.259991,0.101273 -0.182158,-0.0844 -0.304701,-0.03377 -0.28814,-0.03233 -0.09605,-0.195525 -0.41565,0.0056 0.0596,-0.177236 -0.361003,0.0056 -0.23184,0.04361 -0.162285,-0.113937 -0.210309,0.0085 -0.07451,-0.474039 -0.374253,-0.210994 -0.317947,-0.05205 -0.331198,-0.07737 -0.09439,0.03939 -0.127508,0.146294 -0.195407,0.396671 -0.21031,-0.265855 -0.271581,-0.230692 -0.200373,-0.164578 -0.733602,-0.286953 -0.359348,0.05486 -0.220245,0.09706 -0.248398,0.07033 -0.245085,0.06189 -0.01161,-0.120974 -1.407584,-0.531711 -1.465545,-0.557032 -0.996903,-0.38542 0.361005,-0.860867 -1.205557,-0.452943 -1.193964,-0.42621 -0.104329,0.184271 -0.183814,0.357285 -0.170568,0.265857 -0.413996,-0.187082 -0.847862,-0.326344 -0.29642,0.205372 -0.04637,-0.361508 -0.175534,-0.08159 -0.01822,-0.239129 -0.03478,-0.189897 -0.03479,-0.164576 -0.09936,-0.209592 -0.0067,-0.03518 -0.01988,-0.02814 -0.03479,-0.02531 -0.07119,-0.03518 -0.08447,-0.03518 -0.306357,-0.07877 -0.07949,-0.02249 -0.17222,-0.07174 -0.05133,-0.02249 -0.06624,-0.03094 -0.08114,-0.0422 -0.06457,-0.03656 -0.06293,-0.03656 -0.06293,-0.03939 -0.05961,-0.03939 -0.04306,-0.03377 -0.06624,-0.05908 -0.02483,-0.02393 -0.03146,-0.02109 -0.0149,-0.0099 -0.03146,-0.01686 -0.03479,-0.01547 -0.03479,-0.01547 -0.09107,-0.03377 -0.03479,-0.01548 -0.03146,-0.01686 -0.01657,-0.007 -0.0298,-0.0183 -0.02981,-0.0197 -0.06955,-0.04783 -0.221902,-0.157543 -0.07782,-0.0619 -0.053,-0.06892 -0.08942,-0.07455 -0.07949,-0.04079 -0.09771,-0.04501 -0.104331,-0.04642 -0.06789,-0.03939 -0.03809,-0.0085 -0.365973,-0.147698 0.09439,-0.199742 0.06624,-0.161761 0.0149,-0.158952 -0.0033,-0.191305 -0.02815,-0.171611 -0.06624,-0.219435 -0.03645,-0.112542 -0.053,-0.139256 -0.0828,-0.136444 -0.102676,-0.130817 -0.1092997,-0.116751 -0.102665,-0.102859 -0.124196,-0.101274 -0.121469,-0.08448 -0.162293,-0.09995 -0.16891,-0.08018 -0.107643,-0.0422 L 8.8155348,34.822768 7.9865561,34.610399 7.7017263,34.513347 7.454985,34.36565 7.2993227,34.219359 7.113852,33.960535 7.0509173,33.810025 7.0161426,33.66092 6.9813678,33.492123 v -0.16739 l 0.02649,-0.219438 0.06956,-0.268669 0.094392,-0.208183 0.1457275,-0.213811 0.1126126,-0.132223 0.1821581,-0.177237 0.1821591,-0.154733 0.3047003,-0.233502 0.3792195,-0.23491 0.3262296,-0.203963 0.3792188,-0.275704 0.41234,-0.336188 0.312982,-0.306649 0.2748927,-0.302428 0.259989,-0.329155 0.250054,-0.36854 0.269923,-0.472634 0.152352,-0.344627 0.263301,-0.849616 0.102676,-0.56969 0.0414,-0.47404 -0.0016,-0.365728 -0.0414,-0.391047 -0.04471,-0.24335 -0.163942,0.05063 -0.273237,0.0844 -0.15235,0.07596 -0.221902,0.170205 -0.264958,0.22225 -0.250053,0.326342 -0.1589747,0.185676 -0.168909,0.18427 -0.385831,0.324938 -0.208655,0.120972 -0.1755342,0.07877 -0.1506947,0.0085 -0.4653297,-0.219436 -0.1622875,-0.142071 -0.087767,-0.192712 -0.016568,-0.274295 0.031457,-0.175831 -0.014909,-0.29399 0.026501,-0.06189 0.1391023,-0.267262 0.4504281,-0.301023 0.3891547,-0.140665 0.460365,-0.270075 0.7369117,-0.416368 0.228523,-0.165984 0.308014,-0.216622 0.177191,-0.223657 -0.01657,-0.246165 -0.0016,-0.01546 0.01822,-0.261636 0.0232,-0.170205 0.0232,-0.161765 0.05298,-0.218029 0.245087,-0.02532 0.251707,-0.03516 0.04636,0.09566 0.160631,-0.111122 0.23846,-0.08862 0.264957,-0.06611 0.168911,-0.09987 0.289797,-0.19693 0.316293,-0.03798 0.236805,-0.140664 0.0265,-0.104087 0.205342,0.04922 0.03479,0.195525 -0.01325,0.165984 -0.01987,0.109715 -0.01161,0.08722 0.157319,0.0197 0.09439,0.03516 0.139102,0.05064 0.21859,0.09846 0.192094,-0.125193 0.377565,0.02532 0.208653,0.03235 0.397435,-0.299615 -0.01987,-0.355883 0.233493,-0.01829 1.165812,-0.01688 0.428901,-0.0225 0.0016,0.08018 0.105988,0.01407 0.321262,0.08862 0.114256,0.05908 0.226871,0.01265 0.04968,0.144885 0.07451,0.212403 0.404061,0.122378 0.14407,0.04361 0.183814,0.05627 0.03808,-0.06048 0.125852,0.02391 0.65908,0.08018 0.180505,0.01688 0.491826,0.07455 0.332852,0.07737 0.450428,0.226471 0.261644,0.199744 0.109301,-0.101273 0.177189,-0.06048 0.154009,-0.07596 0.231837,-0.08018 0.32954,-0.09003 0.710417,-0.540153 0.08445,0.109716 0.205342,0.676594 0.05299,0.305242 0.02154,0.372762 0.09273,1.009971 0.238461,-0.03798 0.440492,-0.10268 0.369283,0.57813 -0.693857,0.246164 -0.486859,-0.109716 -0.21859,0.05485 -0.0067,0.07596 -0.0067,0.06048 -0.190438,0.07314 -0.235149,0.177236 -0.29311,0.223657 0.04471,0.113937 -0.59284,0.154731 -0.423933,0.129411 -0.493482,0.149104 -0.0049,0.258822 -0.09439,0.548592 -0.122538,-0.0422 -0.312981,0.516238 0.09771,0.02392 0.134135,0.02391 0.344443,0.07033 0.117582,0.03798 0.283174,0.116752 0.576281,0.310869 0.258334,0.13363 0.124195,0.05627 0.13579,0.02954 -0.370939,0.578133 0.47361,0.227875 0.258334,-0.0085 0.485202,-0.01689 -0.01325,-0.443092 0.25999,-0.510613 0.04637,-0.270075 0.139103,-0.402302 0.124195,-0.416367 0.235149,0.139259 0.167253,-0.07877 0.149039,-0.130819 0.394124,0.376983 -0.07949,0.160355 0.172224,0.128007 0.269924,0.130816 0.183813,0.105494 0.06956,-0.06048 0.127508,0.08862 -0.101017,0.09284 -0.319604,0.654091 -0.09439,-0.02813 -0.241775,0.308054 0.202032,0.07455 0.09771,0.0422 0.101017,0.02672 0.114256,0.01121 0.112613,-0.0042 -0.03146,-0.04922 -0.06457,-0.0647 -0.06955,-0.05627 0.119225,-0.157544 0.28483,0.03657 0.147382,0.07737 0.279861,0.06611 -0.07122,-0.447314 0.294766,-0.08581 0.526604,0.07877 0.05465,-0.478258 0.19706,0.173018 0.491827,-0.04079 0.447116,0.08299 0.02484,0.119565 0.167255,0.01828 0.365972,0.04079 0.399092,0.007 0.220246,0.05485 0.213621,0.109715 0.233494,-0.01407 0.245086,-0.0056 0.162286,0.07173 0.120882,0.137851 0.399092,-0.108308 0.332854,-0.0225 0.03478,-0.108308 0.261646,0.007 0.144069,-0.02672 0.120882,-0.170206 0.0298,-0.18005 0.01657,-0.03095 0.06459,-0.147699 0.05299,-0.244756 0.06624,-0.263042 0.182159,-0.19412 -0.221903,-0.119562 -0.18547,-0.119566 -0.06624,-0.181457 -0.04471,-0.142071 -0.02154,-0.09846 0.06457,-0.08299 0.09273,-0.111123 0.150693,0.195523 0.09605,0.09003 0.130822,0.108308 0.519979,-0.122378 0.14076,-0.144884 0.278204,-0.07175 0.163942,0.13082 0.140759,0.08018 0.149038,-0.0042 0.327885,-0.0844 0.07451,-0.198336 0.211966,-0.108309 0.220247,-0.11253 0.03645,-0.0099 0.728633,-0.165983 0.473609,-0.02954 -0.223556,-0.331969 -0.306357,-0.496545 0.02981,-0.22225 0.486859,0.135039 0.433867,-0.313682 0.139104,-0.201151 0.01161,-0.189897 0.122538,-0.171611 -0.05133,-0.04922 -0.04471,-0.06753 -0.01822,-0.07455 0.01657,-0.116751 0.06127,-0.16739 0.09107,-0.227878 0.05794,-0.208183 0.08611,0.03516 0.225212,0.05205 0.395782,0.02392 0.112611,-0.02954 0.175534,-0.04361 0.09273,-0.05346 0.324574,-0.323527 0.03312,-0.233504 -0.08114,-0.369945 -0.02816,-0.16036 -0.208653,-0.310868 -0.09439,-0.396674 0.01324,-0.198337 0.139103,-0.400894 -0.170566,-0.845393 -0.09107,-0.144886 -0.11757,-0.126597 -0.816401,-0.03798 -0.364317,-0.27289 -0.299731,-0.05627 -0.349413,-0.185676 -0.02649,-0.784908 -0.120883,-0.246162 -0.266613,-0.218032 -0.0016,-0.282735 0.0016,-0.01687 0.37922,-0.248975 0.167254,-0.170203 -0.418964,-0.257416 -0.490171,-0.02813 -0.0099,-0.01121 -0.07617,-0.15895 -0.173878,-0.163172 -0.175534,0.02955 -0.197062,0.04922 -0.453738,-0.06753 -0.168911,0.113937 -0.134135,0.09846 -0.04968,0.0197 0.02153,0.128004 0.198718,0.02109 0.165598,0.07737 0.0049,0.136444 0.0232,0.126598 -0.104331,0.237723 -0.04471,0.119564 0.04968,0.08299 0.0679,0.109716 0.0099,0.171611 -0.568003,0.05768 -0.167252,-0.261635 -0.125851,-0.0422 -0.110957,0.04361 -0.271581,0.0225 -0.413996,0.04922 -0.206999,-0.02392 -0.195405,-0.03235 -0.07617,-0.04503 -0.05465,-0.13363 -0.301391,-0.220844 -0.167255,-0.03094 h -0.09605 l -0.18216,0.09987 -0.03974,0.02532 -0.283174,0.407927 0.01987,0.168797 -0.281515,0.05346 -0.228525,-0.01407 -0.524949,0.1266 -0.481889,0.08581 -0.240118,0.104087 -0.31795,0.0099 -0.235151,-0.0619 -0.112598,-0.0099 -0.208655,0.03235 -0.0149,0.03095 -0.04636,0.09144 -0.192093,0.06329 -0.216934,0.07316 -0.120882,0.06753 -0.351069,-0.08581 -0.02649,0.0099 -0.04802,0.01829 -0.0679,0.03798 -0.07782,0.03798 -0.203686,0.06892 -0.104331,0.01687 -0.08777,-0.0197 -0.563033,0.165983 -0.13248,-0.15473 -0.178845,0.08581 -0.372597,0.17583 -0.226868,0.07314 -0.30139,-0.254603 -0.140759,-0.09144 -0.163942,-0.09003 -0.119225,-0.04642 -0.183814,-0.05626 -0.435525,-0.09987 -0.263301,-0.04642 -0.05299,0.09284 -0.06457,0.11253 -0.05961,0.104087 -0.07451,0.128003 -0.101017,0.144886 -0.841241,1.195648 -0.418964,0.354475 -0.77831,-0.400894 -0.05794,0.254603 -0.18878,-0.09847 -0.58125,-0.310869 -0.162287,0.236317 -0.672328,0.108309 0.150693,-0.198336 -0.149038,-0.08862 0.42062,-0.542967 -0.225215,-0.905879 -0.112598,-0.03939 -0.291455,-0.09847 -0.112612,-0.04361 -0.182159,-0.07596 0.04471,-0.08862 0.731945,-1.218154 0.273236,-0.412146 0.09273,-0.140665 -0.124195,-0.04642 -0.337822,-0.06611 -0.07286,0.03798 -0.147383,0.06329 -0.72372,-0.265856 -0.289797,-0.09284 -0.24343,-0.170204 -0.372596,-0.579539 -0.1126,-0.178643 -0.125852,-0.188491 -0.301389,-0.319308 -0.16891,-0.123786 -0.29311,-0.119563 -0.253364,-0.03376 h -0.03146 l -0.332854,-0.0027 0.03645,-0.125192 0.208654,-0.482479 0.274893,-0.483886 0.06457,-0.09706 0.170566,-0.30946 0.220246,-0.05627 0.241773,-0.02955 0.385842,-0.01547 0.188783,0.0099 0.216936,-0.17161 0.549785,-0.132226 -0.0712,-0.126598 -0.115913,-0.19693 0.341132,-0.21381 0.430554,-0.177237 0.572973,-0.227878 -0.06293,-0.10268 -0.06459,-0.105495 -0.114256,-0.16739 -0.221901,-0.37698 -0.142415,-0.104087 0.05961,-0.105495 0.149038,-0.222251 0.20534,-0.07455 -0.245084,-0.150511 0.05465,-0.647058 -0.178846,-0.0422 0.162286,-0.241942 0.102676,-0.04361 0.13248,-0.01969 0.230182,0.045 0.258332,0.08581 0.130823,-0.227876 0.02981,-0.250384 0.30967,-0.631583 0.120882,-0.07737 0.303045,0.0099 0.246741,0.135038 0.283172,0.203964 0.05299,-0.09003 0.03645,-0.20537 -0.149039,-0.08722 0.03146,-0.208184 0.14407,-0.229284 0.1093,-0.160358 0.101027,-0.213909 0.216934,-0.279922 0.293111,-0.02672 0.02981,-0.125191 0.162287,-0.123785 0.226868,-0.177236 -0.08114,-0.128006 -0.172222,-0.277109 -0.0828,-0.39808 0.0083,-0.250383 -0.02154,-0.06189 -0.03312,-0.07596 -0.05465,-0.14629 -0.422278,-0.766621 -0.07451,-0.164577 -0.246741,-0.678004 0.0712,-0.617517 -0.139056,-0.496546 -0.21031,-0.811634 -0.154007,-0.753963 -0.423931,-0.0084 -0.394124,0.06892 -0.22687,-0.274296 -0.04968,-0.09566 -0.0232,-0.09144 0.0083,-0.102682 0.0232,-0.317901 -0.03146,-0.09566 -0.0049,-0.01829 -0.03312,-0.09425 -0.08777,-0.278516 0.534882,-0.1111253 -0.0447,-0.1561378 -0.03975,-0.346035 -0.0414,-0.1364446 0.342789,-0.046419 0.0596,-0.00422 0.200374,-0.018286 0.400748,-0.1054981 0.215277,-0.060485 0.183814,-0.052046 0.394125,-0.104091 0.208652,-0.053452 0.346101,-0.095651 0.659081,-0.1350382 0.476925,-0.090025 0.885951,-0.2588227 0.673984,-0.1336314 0.193751,0.2911755 h 0.124194 l 0.155662,-0.1139381 0.134136,-0.043606 0.422273,-0.185677 0.152354,-0.028131 0.211964,0.028131 0.155662,-0.099872 0.225214,-0.1870836 0.226869,-0.018285 0.332854,-0.064705 0.120882,-0.1673909 z m -0.08115,0.4346536 -0.04802,0.2461631 -0.140757,0.00283 -0.115926,-0.1519176 -0.205342,0.1927102 -0.04305,0.1898972 -0.0149,0.063299 -0.0149,0.067519 -0.01161,0.095651 0.365972,-0.00844 0.129164,-0.075959 0.06624,-0.039387 0.291451,-0.050639 0.175536,-0.049232 0.231836,-0.064705 -0.0083,-0.2095904 -0.0016,-0.1772373 -0.261645,0.016879 -0.142416,0.00844 -0.0679,-0.1181581 z"
       style="fill:#febb0a;fill-opacity:1;fill-rule:evenodd;stroke:#4d4d4d;stroke-width:0.16330671;stroke-linecap:butt;stroke-linejoin:round;stroke-miterlimit:10;stroke-dasharray:none;stroke-opacity:1"
       id="path64"
       inkscape:connector-curvature="0"
       clip-path="url(#clipPath1724)"
       transform="matrix(1.0714286,0,0,1.0670313,-1.4874108,1.1472994)" />
    <rect
       y="15.885948"
       x="0.072518326"
       height="32.479038"
       width="74.186806"
       id="rect1580"
       style="opacity:1;fill:#000000;fill-opacity:0;fill-rule:evenodd;stroke:none;stroke-width:2.46639442;stroke-miterlimit:4;stroke-dasharray:none;stroke-dashoffset:0;stroke-opacity:0" />
    <path
       d="m 35.122977,29.957814 -0.235979,0.120073 -0.227106,0.115569 -0.07983,0.211631 -0.351306,0.09006 -0.159683,0.0045 -0.150813,-0.08556 -0.175651,-0.139588 -0.298077,0.07654 -0.150814,0.154594 -0.557119,0.130581 -0.140168,-0.115567 -0.10291,-0.09606 -0.161458,-0.208629 -0.09935,0.118572 -0.0692,0.08855 0.02307,0.10506 0.0479,0.151595 0.07097,0.193619 0.19872,0.127582 0.23775,0.127577 -0.195168,0.20713 -0.07097,0.280675 -0.05678,0.261162 -0.06918,0.157601 -0.01775,0.03302 -0.03193,0.19212 -0.129518,0.181615 -0.154361,0.02851 -0.280334,-0.0075 -0.03727,0.115568 -0.356628,0.02401 -0.427599,0.115569 -0.129516,-0.147092 -0.173878,-0.07654 -0.262591,0.006 -0.250173,0.01501 -0.228878,-0.117071 -0.235977,-0.05854 -0.427602,-0.0075 -0.392112,-0.04352 -0.179202,-0.01951 -0.02662,-0.127581 -0.479053,-0.08855 -0.526957,0.04352 -0.211135,-0.184614 -0.05855,0.510318 -0.564216,-0.08404 -0.315822,0.09156 0.07629,0.477295 -0.299855,-0.07054 -0.157907,-0.08255 -0.305175,-0.03902 -0.127741,0.168106 0.07452,0.06004 0.06918,0.06904 0.03371,0.05252 -0.120658,0.0045 -0.122417,-0.01196 -0.108231,-0.02851 -0.104689,-0.04502 -0.216461,-0.07955 0.259046,-0.328704 0.101132,0.03002 0.342434,-0.697934 0.108232,-0.09906 -0.136615,-0.09456 -0.07452,0.06453 -0.196944,-0.112566 -0.289206,-0.139587 -0.184524,-0.136586 0.08516,-0.171107 -0.422277,-0.402249 -0.159682,0.139589 -0.1792,0.08404 -0.251947,-0.148591 -0.133067,0.444275 -0.149037,0.429267 -0.04967,0.28818 -0.27856,0.544839 0.01419,0.472795 -0.519862,0.01803 -0.276785,0.0091 -0.50744,-0.24315 0.397435,-0.616886 -0.14549,-0.03153 -0.133066,-0.06004 -0.276786,-0.142587 -0.617446,-0.331708 -0.303399,-0.124577 -0.125967,-0.04052 -0.369048,-0.07505 -0.143716,-0.02551 -0.104689,-0.02552 0.335337,-0.550842 0.13129,0.04502 0.101132,-0.585364 0.0053,-0.276172 0.528731,-0.159099 0.454213,-0.138086 0.635189,-0.165103 -0.0479,-0.121574 0.314045,-0.238651 0.251947,-0.189117 0.204041,-0.07804 0.0071,-0.06453 0.0071,-0.08106 0.234204,-0.05854 0.521635,0.11707 0.743418,-0.262662 -0.395661,-0.616885 -0.471955,0.109562 -0.255495,0.04053 -0.09935,-1.077671 -0.02308,-0.397747 -0.05678,-0.325702 -0.220009,-0.72195 -0.09049,-0.117071 -0.76116,0.576359 -0.35308,0.09606 -0.248397,0.08556 -0.165007,0.08106 -0.189847,0.06453 -0.117108,0.108062 -0.280334,-0.213132 -0.482601,-0.241653 -0.356626,-0.08255 -0.52696,-0.07955 -0.193394,-0.018 -0.706157,-0.08556 -0.134843,-0.02551 -0.04082,0.06453 -0.196945,-0.06003 -0.154361,-0.04654 -0.43292,-0.130583 -0.07983,-0.226641 -0.05324,-0.154596 -0.03905,-0.279175 0.04614,-0.232645 -0.04436,-0.457785 0.441791,-0.20863 0.173877,-0.114067 0.317596,-0.02851 0.720349,-0.115568 0.173881,-0.252157 0.622769,0.331706 0.202266,0.10506 0.06208,-0.271669 0.833903,0.427767 0.448892,-0.378235 0.901326,-1.275795 0.108234,-0.154596 0.07983,-0.136586 0.06386,-0.111063 0.0692,-0.120073 0.05678,-0.09906 0.282109,0.04953 0.466632,0.106576 0.196943,0.06003 0.127754,0.04953 0.175651,0.09606 0.150815,0.09756 0.322918,0.27167 0.243072,-0.07807 0.399211,-0.187617 0.191621,-0.09156 0.14194,0.165103 0.603252,-0.177109 0.09404,0.02101 0.111783,-0.01802 0.218236,-0.07355 0.0834,-0.04052 0.07274,-0.04053 0.05146,-0.01951 0.02839,-0.01057 0.376144,0.09156 0.129516,-0.07205 0.232431,-0.07807 0.205812,-0.06753 0.04968,-0.09757 0.01596,-0.03302 0.223556,-0.03452 0.120657,0.01057 0.251946,0.06605 0.34066,-0.01057 0.257268,-0.111064 0.516311,-0.09156 0.562443,-0.135082 0.244851,0.01501 0.301622,-0.05705 -0.0213,-0.180113 0.303401,-0.43527 0.04258,-0.02702 0.195171,-0.106564 h 0.102911 l 0.179202,0.03303 0.322917,0.235646 0.05855,0.142589 0.08161,0.04802 0.209365,0.03453 0.221782,0.02551 0.443567,-0.05252 0.290982,-0.02401 0.118882,-0.04654 0.13484,0.04502 0.179201,0.279174 0.608576,-0.06155 -0.01061,-0.183115 -0.07275,-0.11707 -0.05324,-0.08855 0.0479,-0.127579 0.111783,-0.253657 -0.02483,-0.135084 -0.0053,-0.14559 -0.177426,-0.08255 -0.212914,-0.02251 -0.02308,-0.136586 0.05323,-0.02101 0.143715,-0.10506 0.180975,-0.121574 0.486148,0.07205 0.21114,-0.05252 0.188071,-0.03153 0.186299,0.174108 0.08161,0.169606 0.01061,0.01196 0.525183,0.03002 0.44889,0.27467 -0.179199,0.181613 -0.406311,0.265665 -0.0018,0.01802 0.0018,0.30169 0.285658,0.232644 0.129516,0.262663 0.02839,0.837521 0.374369,0.198125 0.321144,0.06004 0.390337,0.29118 0.874715,0.04053 0.125968,0.135082 0.09757,0.154599 0.18275,0.902062 -0.149038,0.427765 -0.01419,0.211633 0.101131,0.423264 0.223557,0.331706 0.03018,0.171108 0.08694,0.394742 -0.03548,0.249158 -0.347755,0.345215 -0.09935,0.05704 -0.18807,0.04654 -0.120657,0.03153 -0.42405,-0.02552 -0.2413,-0.05554 -0.09226,-0.03752 -0.06207,0.222138 -0.09758,0.243152 -0.06565,0.178611 -0.01776,0.124577 0.01952,0.07955 0.0479,0.07205 0.055,0.05252 -0.131289,0.183115 -0.01244,0.202626 -0.149039,0.214631 -0.464857,0.334711 -0.521635,-0.144089 -0.03193,0.237148 0.328238,0.529829 0.239527,0.35422 -0.50744,0.03153 -0.780678,0.177109 z"
       style="fill:#000000;fill-opacity:0.42608696;fill-rule:evenodd;stroke:none;stroke-width:0.17461208;stroke-linecap:butt;stroke-linejoin:round;stroke-miterlimit:10;stroke-dasharray:none;stroke-opacity:1"
       id="path66"
       inkscape:connector-curvature="0" />
    <rect
       style="opacity:1;fill:#000000;fill-opacity:0;fill-rule:evenodd;stroke:none;stroke-width:2.02639461;stroke-miterlimit:4;stroke-dasharray:none;stroke-dashoffset:0;stroke-opacity:0"
       id="rect1533"
       width="60.703701"
       height="8.700532"
       x="4.128655"
       y="-21.793566" />
    <rect
       style="opacity:1;fill:#000000;fill-opacity:0;fill-rule:evenodd;stroke:none;stroke-width:1.60714304;stroke-miterlimit:4;stroke-dasharray:none;stroke-dashoffset:0;stroke-opacity:0"
       id="rect1550"
       width="41.671875"
       height="18.568081"
       x="5.3161612"
       y="11.253324" />
    <rect
       style="opacity:1;fill:#000000;fill-opacity:0;fill-rule:evenodd;stroke:none;stroke-width:1.60714304;stroke-miterlimit:4;stroke-dasharray:none;stroke-dashoffset:0;stroke-opacity:0"
       id="rect1552"
       width="6.7406716"
       height="8.180418"
       x="43.617699"
       y="25.731197" />
    <rect
       style="opacity:1;fill:#000000;fill-opacity:0;fill-rule:evenodd;stroke:none;stroke-width:1.60714304;stroke-miterlimit:4;stroke-dasharray:none;stroke-dashoffset:0;stroke-opacity:0"
       id="rect1554"
       width="52.12936"
       height="27.160465"
       x="5.3161612"
       y="11.253323" />
    <rect
       style="opacity:1;fill:#000000;fill-opacity:0;fill-rule:evenodd;stroke:none;stroke-width:1.5;stroke-miterlimit:4;stroke-dasharray:none;stroke-dashoffset:0;stroke-opacity:0"
       id="rect1556"
       width="54.816978"
       height="45.462547"
       x="-7.9512682"
       y="-4.9685001" />
    <text
       xml:space="preserve"
       style="font-style:normal;font-variant:normal;font-weight:normal;font-stretch:normal;font-size:10.20535851px;line-height:1.25;font-family:'URW Gothic L';-inkscape-font-specification:'URW Gothic L';letter-spacing:0px;word-spacing:0px;fill:#000000;fill-opacity:1;stroke:none;stroke-width:0.28348216"
       x="-0.31709233"
       y="10.508575"
       id="text1531"><tspan
         sodipodi:role="line"
         id="tspan1529"
         x="-0.31709233"
         y="10.508575"
         style="font-style:oblique;font-variant:normal;font-weight:normal;font-stretch:normal;font-size:10.20535851px;font-family:'URW Gothic L';-inkscape-font-specification:'URW Gothic L Oblique';stroke-width:0.28348216">MitigationHubs</tspan></text>
    <path
       style="fill:#000000;fill-opacity:1;stroke:#000000;stroke-width:1.1536727;stroke-linecap:butt;stroke-linejoin:miter;stroke-miterlimit:4;stroke-dasharray:none;stroke-opacity:1"
       d="M -0.11457035,48.871456 H 73.141288 v 0.200392"
       id="path1519-4"
       inkscape:connector-curvature="0" />
    <rect
       style="opacity:0.65700001;fill:#ffffff;fill-opacity:1;fill-rule:evenodd;stroke:none;stroke-width:0.89999998;stroke-miterlimit:4;stroke-dasharray:none;stroke-dashoffset:0;stroke-opacity:1"
       id="rect1728"
       width="74.186806"
       height="32.479038"
       x="0.072515666"
       y="15.885948" />
    <path
       style="fill:url(#linearGradient861);fill-opacity:1;stroke:url(#linearGradient1527);stroke-width:3.74394155;stroke-linecap:butt;stroke-linejoin:miter;stroke-miterlimit:4;stroke-dasharray:none;stroke-opacity:1"
       d="M 0.05016648,15.178713 H 72.533559 v 2.132937"
       id="path1519"
       inkscape:connector-curvature="0" />
    <path
       style="fill:none;stroke:#000000;stroke-width:0.82914853;stroke-linecap:butt;stroke-linejoin:miter;stroke-miterlimit:4;stroke-dasharray:none;stroke-opacity:1"
       d="m 0.2425916,48.698627 c 0,0 24.2062954,-21.792126 39.9076804,-27.302574 11.840473,-4.155452 34.053217,-3.200218 34.053217,-3.200218"
       id="path1586"
       inkscape:connector-curvature="0"
       sodipodi:nodetypes="csc" />
  </g>
</svg>
